<?xml version="1.0" standalone="no"?>
<svg xmlns="http://www.w3.org/2000/svg" viewBox="0 0 228.277 29" width="228.277" height="29"><g fill="#a16aff" color="#a16aff" transform="translate(0, 0) scale(0.6041667)"><svg width="28.0" height="48.0" x="0.0" y="0.0" viewBox="0 0 28 48"><path fill="currentColor" fill-rule="nonzero" d="M13.93.61L.36 30.2l13.57 17.19L27.51 30.2 13.93.61zm0 3.92L25.6 30.02H2.26L13.93 4.53z"></path></svg></g><line x1="28.917" y1="1" x2="28.917" y2="28" stroke="#5e00ff" stroke-linecap="round"></line><path fill="#5e00ff" fill-rule="nonzero" d="M16.44 17.40L11.14 17.40L11.14 11.14L5.30 11.14L5.30 17.40L0 17.40L0 0.89L5.30 0.89L5.30 6.91L11.14 6.91L11.14 0.89L16.44 0.89L16.44 17.40ZM26.21 4.44Q29.69 4.44 31.52 6.07Q33.36 7.70 33.36 11.06L33.36 11.06L33.36 11.88L23.86 11.88Q23.86 13.25 24.47 13.94Q25.08 14.64 26.40 14.64L26.40 14.64Q27.60 14.64 28.16 14.14Q28.73 13.63 28.73 12.79L28.73 12.79L33.36 12.79Q33.36 15.10 31.61 16.39Q29.86 17.69 26.50 17.69L26.50 17.69Q22.97 17.69 21.02 16.04Q19.08 14.40 19.08 11.06L19.08 11.06Q19.08 7.80 20.98 6.12Q22.87 4.44 26.21 4.44L26.21 4.44ZM26.40 7.49Q24.14 7.49 23.88 9.62L23.88 9.62L28.54 9.62Q28.54 8.64 27.97 8.06Q27.41 7.49 26.40 7.49L26.40 7.49ZM44.02 4.44Q46.58 4.44 47.98 6.12Q49.37 7.80 49.37 11.09L49.37 11.09Q49.37 14.35 47.98 16.02Q46.58 17.69 44.02 17.69L44.02 17.69Q41.81 17.69 40.46 16.25L40.46 16.25L40.46 22.13L35.69 22.13L35.69 4.73L39.58 4.73L39.98 6.53Q41.38 4.44 44.02 4.44L44.02 4.44ZM42.53 7.97Q41.47 7.97 40.94 8.71Q40.42 9.46 40.42 10.66L40.42 10.66L40.42 11.45Q40.42 12.65 40.94 13.40Q41.47 14.16 42.53 14.16L42.53 14.16Q44.59 14.16 44.59 11.69L44.59 11.69L44.59 10.42Q44.59 7.97 42.53 7.97L42.53 7.97ZM56.45 6.05Q57.22 5.28 58.25 4.86Q59.28 4.44 60.41 4.44L60.41 4.44Q62.62 4.44 63.72 5.66Q64.82 6.89 64.82 9.19L64.82 9.19L64.82 17.40L60.05 17.40L60.05 9.77Q60.05 8.95 59.63 8.46Q59.21 7.97 58.44 7.97L58.44 7.97Q57.55 7.97 57 8.54Q56.45 9.12 56.45 9.96L56.45 9.96L56.45 17.40L51.67 17.40L51.67 0L56.45 0L56.45 6.05ZM73.94 4.44Q76.85 4.44 78.67 5.41Q80.50 6.38 80.50 8.57L80.50 8.57L80.50 13.51Q80.50 13.92 80.69 14.18Q80.88 14.45 81.26 14.45L81.26 14.45L82.13 14.45L82.13 17.21Q82.06 17.26 81.76 17.36Q81.46 17.47 80.90 17.58Q80.35 17.69 79.63 17.69L79.63 17.69Q78.24 17.69 77.34 17.27Q76.44 16.85 76.10 16.10L76.10 16.10Q75.19 16.82 74.06 17.26Q72.94 17.69 71.42 17.69L71.42 17.69Q66.96 17.69 66.96 14.14L66.96 14.14Q66.96 12.29 67.96 11.32Q68.95 10.34 70.82 9.98Q72.70 9.62 75.72 9.62L75.72 9.62L75.72 9.00Q75.72 8.26 75.20 7.87Q74.69 7.49 73.87 7.49L73.87 7.49Q73.13 7.49 72.59 7.75Q72.05 8.02 72.05 8.59L72.05 8.59L72.05 8.69L67.34 8.69Q67.32 8.57 67.32 8.35L67.32 8.35Q67.32 6.55 69.04 5.50Q70.75 4.44 73.94 4.44L73.94 4.44ZM75.72 11.88Q73.68 11.88 72.71 12.32Q71.74 12.77 71.74 13.51L71.74 13.51Q71.74 14.71 73.37 14.71L73.37 14.71Q74.30 14.71 75.01 14.21Q75.72 13.70 75.72 12.96L75.72 12.96L75.72 11.88ZM88.63 3.24L83.86 3.24L83.86 0L88.63 0L88.63 3.24ZM88.63 17.40L83.86 17.40L83.86 4.73L88.63 4.73L88.63 17.40ZM97.70 4.44Q100.25 4.44 102.01 5.44Q103.78 6.43 103.78 8.52L103.78 8.52L99.34 8.52Q99.34 7.82 98.71 7.54L98.71 7.54Q98.28 7.30 97.63 7.30L97.63 7.30Q95.90 7.30 95.90 8.11L95.90 8.11Q95.90 8.57 96.50 8.76Q97.10 8.95 98.47 9.17L98.47 9.17Q100.15 9.41 101.28 9.73Q102.41 10.06 103.25 10.88Q104.09 11.71 104.09 13.20L104.09 13.20Q104.09 15.62 102.28 16.66Q100.46 17.69 97.54 17.69L97.54 17.69Q95.86 17.69 94.37 17.22Q92.88 16.75 91.94 15.77Q91.01 14.78 91.01 13.27L91.01 13.27L95.45 13.27L95.45 13.37Q95.47 14.18 96.13 14.51Q96.79 14.83 97.54 14.83L97.54 14.83Q99.53 14.83 99.53 13.90L99.53 13.90Q99.53 13.42 98.90 13.20Q98.28 12.98 96.86 12.74L96.86 12.74Q95.16 12.46 94.07 12.12Q92.98 11.78 92.16 10.98Q91.34 10.18 91.34 8.74L91.34 8.74Q91.34 6.41 93.11 5.42Q94.87 4.44 97.70 4.44L97.70 4.44ZM112.10 4.73L114.79 4.73L114.79 7.97L112.10 7.97L112.10 12.79Q112.10 13.66 112.39 14.05Q112.68 14.45 113.45 14.45L113.45 14.45L114.79 14.45L114.79 17.26Q114.22 17.45 113.30 17.57Q112.39 17.69 111.72 17.69L111.72 17.69Q109.61 17.69 108.47 16.92Q107.33 16.15 107.33 14.30L107.33 14.30L107.33 7.97L105.55 7.97L105.55 4.73L107.52 4.73L108.55 0.89L112.10 0.89L112.10 4.73ZM123.26 4.44Q126.17 4.44 127.99 5.41Q129.82 6.38 129.82 8.57L129.82 8.57L129.82 13.51Q129.82 13.92 130.01 14.18Q130.20 14.45 130.58 14.45L130.58 14.45L131.45 14.45L131.45 17.21Q131.38 17.26 131.08 17.36Q130.78 17.47 130.22 17.58Q129.67 17.69 128.95 17.69L128.95 17.69Q127.56 17.69 126.66 17.27Q125.76 16.85 125.42 16.10L125.42 16.10Q124.51 16.82 123.38 17.26Q122.26 17.69 120.74 17.69L120.74 17.69Q116.28 17.69 116.28 14.14L116.28 14.14Q116.28 12.29 117.28 11.32Q118.27 10.34 120.14 9.98Q122.02 9.62 125.04 9.62L125.04 9.62L125.04 9.00Q125.04 8.26 124.52 7.87Q124.01 7.49 123.19 7.49L123.19 7.49Q122.45 7.49 121.91 7.75Q121.37 8.02 121.37 8.59L121.37 8.59L121.37 8.69L116.66 8.69Q116.64 8.57 116.64 8.35L116.64 8.35Q116.64 6.55 118.36 5.50Q120.07 4.44 123.26 4.44L123.26 4.44ZM125.04 11.88Q123 11.88 122.03 12.32Q121.06 12.77 121.06 13.51L121.06 13.51Q121.06 14.71 122.69 14.71L122.69 14.71Q123.62 14.71 124.33 14.21Q125.04 13.70 125.04 12.96L125.04 12.96L125.04 11.88ZM141.22 0.60Q144.89 0.60 147.02 2.44Q149.16 4.27 149.16 7.68L149.16 7.68L144.10 7.68Q144.10 6.24 143.34 5.40Q142.58 4.56 141.19 4.56L141.19 4.56Q139.58 4.56 138.83 5.57Q138.07 6.58 138.07 8.38L138.07 8.38L138.07 9.91Q138.07 11.69 138.83 12.71Q139.58 13.73 141.14 13.73L141.14 13.73Q142.68 13.73 143.47 12.94Q144.26 12.14 144.26 10.70L144.26 10.70L149.16 10.70Q149.16 14.09 147.08 15.89Q145.01 17.69 141.22 17.69L141.22 17.69Q136.99 17.69 134.82 15.53Q132.65 13.37 132.65 9.14L132.65 9.14Q132.65 4.92 134.82 2.76Q136.99 0.60 141.22 0.60L141.22 0.60ZM171.46 17.40L166.20 17.40L166.20 11.45Q166.20 10.34 166.28 9.18Q166.37 8.02 166.46 7.22Q166.56 6.43 166.58 6.22L166.58 6.22L166.49 6.22L163.44 17.40L159.29 17.40L156.22 6.24L156.12 6.24Q156.14 6.46 156.25 7.24Q156.36 8.02 156.46 9.18Q156.55 10.34 156.55 11.45L156.55 11.45L156.55 17.40L151.68 17.40L151.68 0.89L159.17 0.89L161.66 10.42L161.76 10.42L164.23 0.89L171.46 0.89L171.46 17.40ZM181.61 0.60Q184.78 0.60 186.82 1.88Q188.86 3.17 188.90 5.69L188.90 5.69L188.90 5.98L183.94 5.98L183.94 5.88Q183.94 5.16 183.41 4.68Q182.88 4.20 181.80 4.20L181.80 4.20Q180.74 4.20 180.18 4.51Q179.62 4.82 179.62 5.28L179.62 5.28Q179.62 5.93 180.38 6.24Q181.15 6.55 182.86 6.89L182.86 6.89Q184.85 7.30 186.13 7.74Q187.42 8.18 188.38 9.19Q189.34 10.20 189.36 11.93L189.36 11.93Q189.36 14.86 187.38 16.27Q185.40 17.69 182.09 17.69L182.09 17.69Q178.22 17.69 176.08 16.39Q173.93 15.10 173.93 11.81L173.93 11.81L178.94 11.81Q178.94 13.06 179.59 13.48Q180.24 13.90 181.61 13.90L181.61 13.90Q182.62 13.90 183.28 13.68Q183.94 13.46 183.94 12.79L183.94 12.79Q183.94 12.19 183.20 11.89Q182.47 11.59 180.82 11.26L180.82 11.26Q178.80 10.82 177.48 10.36Q176.16 9.89 175.18 8.81Q174.19 7.73 174.19 5.88L174.19 5.88Q174.19 3.17 176.29 1.88Q178.39 0.60 181.61 0.60L181.61 0.60Z" transform="translate(38.917, 5.8)"></path></svg>