<?xml version="1.0" standalone="no"?>
<svg xmlns="http://www.w3.org/2000/svg" viewBox="0 0 285.656645232992 122.15785345717234" width="285.656645232992" height="122.15785345717234"><rect fill="none" stroke="#ffffff" stroke-width="4" width="281.656645232992" height="118.15785345717234" x="2" y="2"></rect><g fill="#ffffff" color="#ffffff" transform="translate(12 12) scale(1.8876511)"><svg width="44.0" height="52.0" x="0.0" y="0.0" viewBox="0 0 44 52"><path fill="currentColor" fill-rule="evenodd" d="M28.965 20.66c-.215.472-.215.343-.644.515-.43.172-.903.13-1.075-.172a.82.82 0 0 1 .258-1.031c.301-.258.817-.215 1.203-.086.387.129.258.774.258.774m-13.924-.774c.43-.129.903-.172 1.204.086.3.258.43.73.257 1.031-.171.344-.644.344-1.074.172-.43-.172-.473-.043-.688-.515.043 0-.085-.645.301-.774m21.015 5.802c-.387.258-.129.73.086 1.804.172 1.075-.387 1.462-.73 1.934-.344.473-.387-.171-.774-.171-.344-.044-.043.945-.086 1.59-.043.644-.516.258-.86.215-.343-.043-.214.214-.343.816-.13.602-.13.215-.516.558-.387.345-.129.645-.129 1.29-.043.688-.043.73-.129 1.933-.043 1.204-.558 1.505-.644 2.15-.086.644-.602 1.203-.86.859-.258-.344-.3-1.16-.387-1.805-.129-.644-.386.989-.515 1.547-.13.559-.645.172-.645-.129 0-.343-.3.258-.473.645-.172.386-.472.3-.558-.086-.043-.387-.43.129-.602.3-.172.172-.387.56-.73.56-.344 0-.173.601-.344 1.031-.13.43-.301.258-.645.129-.344-.172-.215.344-.387.86-.172.558-.687.43-.902.17-.215-.257-.258 1.075-.43 1.677-.172.559-.387-.086-.989 1.117-.558 1.204-.472 1.419-.816 2.622-.215.645-.559.86-.86.946-.3-.086-.687-.301-.86-.946-.343-1.203-.257-1.418-.816-2.622-.558-1.203-.816-.558-.988-1.117-.172-.558-.215-1.891-.43-1.676-.215.258-.73.344-.902-.172-.172-.558-.043-1.031-.387-.86-.344.172-.473.345-.645-.128-.129-.43.043-1.031-.343-1.031-.344 0-.56-.388-.731-.56-.172-.171-.559-.687-.602-.3-.043.387-.386.472-.558.086-.172-.387-.473-.988-.473-.645 0 .344-.473.688-.645.13-.129-.56-.387-2.192-.515-1.548-.13.645-.172 1.418-.387 1.805-.258.344-.774-.215-.86-.86-.086-.644-.601-.902-.644-2.149-.043-1.202-.086-1.289-.13-1.933-.042-.688.259-.988-.128-1.29-.387-.343-.387.044-.516-.558-.129-.602 0-.86-.344-.816-.344.043-.816.43-.86-.215-.042-.645.259-1.634-.085-1.59-.344.043-.387.687-.774.171-.344-.472-.902-.902-.73-1.934.172-1.074.472-1.546.086-1.804-.387-.258-.86-.559-.559-1.118.3-.558-.172-1.074.602-1.89.773-.817.773-.645.644-1.806-.129-1.16-.43-1.074-.043-1.719.387-.644.258-.386.473-1.074.172-.688.774-.902.817-.129 0 0 .171 1.375.085 2.235-.128.86-.128.644.215 1.203.344.559.301.172.516 1.29.215 1.117.688.43 1.203 1.375.516.902.172.816.903 1.203.73.387.988-.086 1.59.86.602.944.645.343.73 1.504.086.687.086 1.074.172 1.289.086-.215.215-.473.387-.73 1.16-1.72 1.762-2.193 1.633-3.009-.129-.86.043-.988-.773-1.203-.817-.258-.688-.774-1.247-.473-.558.258-.601.3-.816.258 0 0 .172-.473-.258-.516-.43-.043-.86-.344-.559-.516.258-.172-.257-.816-.687-.988-.43-.172-.774-.903-.645-1.332.13-.43.301-.774.774-.387.472.344.988-.129 1.332.645.344.773.688 1.074 1.547 1.203.387.043.645 0 .86 0 .257-.043.43-.086.644 0 .344.172.645.86.774.387s.043-.688-.13-.903c-.171-.258-.558-.344-.3-.86.258-.472.215-.859-.387-1.46-.601-.645-1.246-1.376-1.805-1.118-.558.258-.473.73-1.289.774-.774.043-1.89.386-2.106-.473 0 0 0-1.332.73-1.29.731.044.903.387 1.29-.171.387-.559 1.461-1.805 2.836-1.29 1.376.56 2.536 2.106 2.536 3.18.043 1.075.215 1.763.258 2.235.043.473.344.989-.344 2.235-.645 1.246-.387 1.461-.387 2.235 0 .773-.172 1.89-.387 3.094-.214 1.203-.086.688.688.946.774.257 1.074-.043 1.633-.086.387 0 .774-.087.989-.13.214.043.558.087.988.13.559.043.86.343 1.633.086.774-.258.902.257.688-.946-.215-1.203-.387-2.32-.387-3.094s.258-.989-.387-2.235-.387-1.805-.344-2.235c.043-.472.258-1.16.258-2.234.043-1.075 1.16-2.622 2.536-3.18 1.375-.56 2.45.687 2.836 1.289.387.558.559.172 1.29.172.73-.043.73 1.289.73 1.289-.215.902-1.29.516-2.106.473-.774-.043-.73-.516-1.29-.774-.558-.258-1.16.473-1.804 1.117-.645.645-.688.989-.387 1.462.258.472-.129.601-.3.86-.173.257-.259.472-.13.902.13.472.43-.215.774-.387.172-.086.387-.043.644 0 .215.043.516.086.86 0 .86-.13 1.203-.43 1.547-1.203.344-.774.86-.258 1.332-.645.473-.344.688-.043.774.387.129.43-.215 1.16-.645 1.332-.43.172-.945.773-.687.988.257.172-.13.473-.559.516-.43.043-.258.516-.258.516-.215.043-.258 0-.816-.258-.56-.258-.43.258-1.247.473-.816.257-.644.386-.773 1.203-.13.86.472 1.29 1.633 3.008.172.258.3.473.387.73.086-.257.129-.6.171-1.288.086-1.16.13-.56.731-1.505.602-.945.86-.472 1.59-.86.73-.386.387-.3.903-1.202.515-.903.988-.258 1.203-1.376.215-1.117.172-.73.516-1.289.343-.559.343-.344.215-1.203-.13-.86.085-2.235.085-2.235.043-.773.645-.559.817.129.172.688.043.473.473 1.074.386.645.129.56-.043 1.72-.13 1.16-.172.988.644 1.804.774.817.301 1.333.602 1.891.559.559.086.86-.3 1.118M8.036 4.158c.859-1.376 1.117-1.935 1.847-1.161.73.773.774 1.203 1.848 2.88 1.075 1.675 1.977 1.89 1.891 2.75-.129.902.043 1.289-1.074 1.761-1.118.43-1.72.172-1.762-.773-.043-.946.473-.645.258-1.59-.258-.946-.387-2.063-.774-2.32-.387-.259-1.16-.259-1.246.6 0 0-.301 1.376-.086 2.236.215.86-.086 2.277-.43 1.847-.387-.43-.902-.515-.816-2.45 0-1.933-.516-2.406.343-3.78M32.06 5.875c1.074-1.676 1.117-2.106 1.847-2.88.731-.773.989-.214 1.848 1.161.86 1.375.344 1.891.387 3.782.086 1.934-.43 1.977-.816 2.45-.387.43-.645-.989-.43-1.848.215-.86-.086-2.235-.086-2.235-.086-.86-.86-.86-1.246-.602-.387.258-.516 1.375-.774 2.32-.258.946.3.645.258 1.59-.043.946-.645 1.204-1.762.774-1.117-.43-.946-.859-1.074-1.762-.172-.902.773-1.117 1.848-2.75m10.056 19.339c-.688-1.031-.903-1.16-.946-2.063-.043-.945.086-1.461-.773-2.45-.86-.988-1.075-1.46-.946-2.75.13-1.29-.043-3.137-.515-3.739 0 0-.172 1.16-.387 1.418-.215.301-.258-1.59-.387-2.062-.172-.473-.387-1.118-.86-1.376-.472-.3-.644-1.074-.644-1.074S38.506 2.395 34.036.461c0 0-1.074-.387-1.934 1.547-.859 1.934-3.652 3.138-4.383 4.126-.73.988-1.117 1.117-1.203 1.117-.13 0-3.052-.73-4.642-.73-1.59 0-4.512.73-4.64.73-.13 0-.474-.129-1.204-1.117s-3.524-2.192-4.384-4.126C10.786.074 9.712.461 9.712.461 5.286 2.395 7.091 11.12 7.091 11.12s-.172.774-.645 1.074c-.472.301-.687.903-.86 1.376-.171.472-.214 2.363-.386 2.062-.215-.3-.387-1.418-.387-1.418-.473.602-.644 2.45-.515 3.74.128 1.288-.086 1.804-.946 2.75-.86.988-.73 1.504-.773 2.45-.043.945-.258 1.073-.946 2.062C.945 26.246 0 28.137 0 28.137s.387.172.73.301c.344.129.602.387.946.516s.387.344.688.515c.3.215 0 .387-.172.774s.258.602.773.86c.516.257.602.472.86 1.03.258.516.3 1.118.86 1.29.558.215.386.559.472 1.118.086.515.387.687 1.074.816.645.129.344.387.387.989.043.6.645.73 1.547.687.903-.043.387.3 1.762 1.59s3.481 3.008 5.544 5.63c2.02 2.621 5.071 7.735 6.446 7.735 1.376 0 4.384-5.114 6.447-7.735 2.02-2.622 4.168-4.298 5.543-5.63 1.376-1.29.86-1.633 1.762-1.59.903.043 1.505-.086 1.548-.687.043-.602-.301-.86.386-.989.645-.13.989-.3 1.075-.816.086-.516-.086-.903.472-1.118.56-.215.602-.774.86-1.29.258-.515.344-.773.86-1.03.515-.258.945-.473.773-.86-.172-.387-.43-.559-.172-.774.3-.214.387-.43.688-.515.343-.13.601-.43.945-.516.344-.129.73-.301.73-.301s-1.03-1.934-1.718-2.922m-13.194 5.114c-.085.386-.258.688-.258.988 0 .688-.43.731-1.117.387-.688-.344-.258.559-.387 1.418-.128.86-1.203 1.676-1.504 2.235-.343.559-.86.043-.902-.559-.044-.601.472-1.762-.215-2.965-.559-1.031-2.149-.645-2.622-.516-.472-.129-2.063-.472-2.621.516-.688 1.203-.172 2.364-.215 2.965-.043.602-.601 1.118-.902.56-.344-.56-1.376-1.376-1.504-2.236-.13-.86.3-1.719-.387-1.418-.688.344-1.118.258-1.118-.387 0-.3-.171-.602-.258-.988-.257-.043-.472-.043-.558.043-.172.215-.387 1.074-.172 2.062.258.99.559 1.161 1.203 1.978.645.816 1.16.558 1.59 1.719.43 1.203.258 1.46 1.032 1.762.773.3.86.386 1.632.3.774-.086.774.043 1.333.13.258.042.43 0 .516 0 .129-.044.215-.044.3 0 .044 0 .087.042.13.085.043-.043.085-.086.128-.086.086-.043.172-.043.3 0 .13 0 .26.043.517 0 .558-.043.558-.172 1.332-.129.774.086.86 0 1.633-.3.774-.302.601-.56 1.031-1.762.43-1.204.99-.903 1.59-1.72.645-.816.946-.988 1.204-1.977.258-.988 0-1.847-.172-2.062-.086-.129-.3-.086-.559-.043"></path></svg></g><path fill="#ffffff" fill-rule="nonzero" d="M22.64 13.68L22.64 13.68L22.64 15.32Q22.64 22.12 19.24 24.72L19.24 24.72Q21.44 24.60 23.32 24.04L23.32 24.04L23.32 28.96L11.32 28.96Q8.84 28.96 6.56 28.14Q4.28 27.32 2.62 25.66Q0.96 24 0.48 21.68Q0 19.36 0 15.24L0 15.24L0 13.72Q0 9.60 0.48 7.28Q0.96 4.96 2.62 3.30Q4.28 1.64 6.56 0.82Q8.84 0 11.32 0Q13.80 0 16.06 0.82Q18.32 1.64 20.02 3.34Q21.72 5.04 22.18 7.24Q22.64 9.44 22.64 13.68ZM17.08 15.08L17.08 15.08L17.08 13.16Q17.08 8.16 15.72 6.60L15.72 6.60Q14.36 4.96 11.32 4.96Q8.28 4.96 6.84 6.64L6.84 6.64Q5.80 7.88 5.64 10.96L5.64 10.96Q5.56 11.96 5.56 13.72L5.56 13.72L5.56 15.20Q5.60 19.44 6.20 21L6.20 21Q7.32 24 11.32 24L11.32 24Q14.80 24 15.96 22L15.96 22Q16.72 20.56 16.88 19.20L16.88 19.20Q17.08 17.48 17.08 15.08ZM42.88 0.24L48.40 0.24L48.40 18.96Q48.40 23.60 45.26 26.28Q42.12 28.96 37.52 28.96Q32.92 28.96 29.78 26.28Q26.64 23.60 26.64 18.96L26.64 18.96L26.64 0.24L32.20 0.24L32.20 18.76Q32.20 21.40 33.66 22.70Q35.12 24 37.52 24Q39.92 24 41.40 22.70Q42.88 21.40 42.88 18.76L42.88 18.76L42.88 0.24ZM72.96 23.76L72.96 28.72L62.88 28.72Q58.08 28.72 56.14 27.06Q54.20 25.40 54.20 21.20L54.20 21.20L54.20 0.24L72.96 0.24L72.96 5.20L59.76 5.20L59.76 11.88L69 11.88L68.60 16.84L59.76 16.84L59.76 20.80Q59.76 22.48 60.52 23.12Q61.28 23.76 63.28 23.76L63.28 23.76L72.96 23.76ZM95.04 0.24L100.60 0.24L100.60 25.84Q100.60 27.16 99.80 28.10Q99 29.04 97.92 29.04L97.92 29.04Q95.16 29.04 93.40 25.84L93.40 25.84L83.56 10.44L83.56 28.72L78 28.72L78 0.24L83.36 0.24L95.04 18.88L95.04 0.24ZM124.88 0.24L124.88 5.20L117.24 5.20L117.24 28.72L111.68 28.72L111.68 5.20L104.08 5.20L104.08 0.24L124.88 0.24ZM134.76 0.24L134.76 28.72L129.20 28.72L129.20 0.24L134.76 0.24ZM158.04 0.24L163.60 0.24L163.60 25.84Q163.60 27.16 162.80 28.10Q162 29.04 160.92 29.04L160.92 29.04Q158.16 29.04 156.40 25.84L156.40 25.84L146.56 10.44L146.56 28.72L141.00 28.72L141.00 0.24L146.36 0.24L158.04 18.88L158.04 0.24Z" transform="translate(110.057 12) scale(1)"></path><path fill="#ffffff" fill-rule="nonzero" d="M18.76 23.76L18.76 28.72L8.68 28.72Q3.88 28.72 1.94 27.06Q0 25.40 0 21.20L0 21.20L0 0.24L18.76 0.24L18.76 5.20L5.56 5.20L5.56 11.88L14.80 11.88L14.40 16.84L5.56 16.84L5.56 20.80Q5.56 22.48 6.32 23.12Q7.08 23.76 9.08 23.76L9.08 23.76L18.76 23.76ZM45.24 28.72L45.24 11.72L40.12 22.52Q39 24.68 37.34 24.68Q35.68 24.68 34.56 22.40L34.56 22.40L29.36 11.72L29.36 28.72L23.80 28.72L23.80 0.24L29.28 0.24L37.32 16.68L45.32 0.24L50.80 0.24L50.80 28.72L45.24 28.72ZM77.52 13.16L77.52 13.16L77.52 15.32Q77.52 22.48 74.82 25.72Q72.12 28.96 66.16 28.96Q60.20 28.96 57.54 25.72Q54.88 22.48 54.88 15.20L54.88 15.20L54.88 13.12Q54.88 6.48 57.58 3.24Q60.28 0 66.14 0Q72 0 74.76 3.28Q77.52 6.56 77.52 13.16ZM71.96 15.20L71.96 15.20L71.96 13.72Q71.96 9.88 71 7.60L71 7.60Q69.88 4.96 66.20 4.96L66.20 4.96Q62.48 4.96 61.36 7.60L61.36 7.60Q60.44 9.76 60.44 13.72L60.44 13.72L60.44 15.20Q60.44 20.36 61.88 22.16L61.88 22.16Q62.44 22.92 63.54 23.46Q64.64 24 66.18 24Q67.72 24 68.80 23.48Q69.88 22.96 70.48 22.20Q71.08 21.44 71.40 20.20L71.40 20.20Q71.96 18.24 71.96 15.20Z" transform="translate(110.057 49.04) scale(2.111)"></path></svg>